<?xml version="1.0" standalone="no"?>
<!DOCTYPE svg PUBLIC "-//W3C//DTD SVG 20010904//EN"
 "http://www.w3.org/TR/2001/REC-SVG-20010904/DTD/svg10.dtd">
<svg version="1.0" xmlns="http://www.w3.org/2000/svg"
 width="512.000000pt" height="512.000000pt" viewBox="0 0 512.000000 512.000000"
 preserveAspectRatio="xMidYMid meet">

<g transform="translate(0.000000,512.000000) scale(0.100000,-0.100000)"
fill="#000000" stroke="none">
<path d="M3955 4821 c-129 -37 -231 -104 -340 -225 l-70 -76 -1323 0 c-914 0
-1329 -3 -1343 -11 -48 -25 -44 -105 7 -128 18 -8 373 -11 1299 -11 l1274 0
-45 -94 c-176 -373 -288 -1007 -301 -1708 l-6 -306 26 -26 26 -26 196 0 195 0
0 -81 0 -82 -37 -32 -38 -33 -3 -526 -3 -526 -1597 0 -1597 0 -40 23 c-22 13
-49 40 -62 62 l-23 40 0 1593 c0 1775 -6 1634 68 1690 35 26 40 27 208 32 151
4 175 7 193 24 28 25 28 79 0 107 -20 20 -29 20 -207 17 -172 -3 -190 -5 -230
-26 -66 -35 -119 -88 -149 -150 l-28 -57 0 -1635 0 -1635 28 -57 c32 -65 89
-121 156 -152 l46 -21 1618 -3 1617 -2 0 -167 c0 -189 10 -227 76 -282 55 -44
94 -51 304 -51 210 0 249 7 304 51 65 55 76 93 76 282 l0 166 328 3 327 3 57
28 c65 32 121 89 152 156 20 44 21 63 24 396 3 343 3 351 -18 373 -28 30 -82
30 -110 0 -19 -21 -20 -34 -20 -348 0 -318 -1 -327 -22 -370 -15 -30 -37 -53
-63 -67 -39 -22 -48 -23 -347 -23 l-308 0 0 513 c0 489 -1 513 -20 544 -10 17
-28 37 -39 43 -21 11 -21 11 -21 1176 l0 1165 358 -3 c356 -3 357 -3 390 -26
18 -13 41 -41 52 -62 20 -38 20 -63 20 -1153 0 -1106 0 -1113 20 -1135 28 -30
82 -30 110 0 20 22 20 24 18 1158 l-3 1135 -28 57 c-30 62 -83 115 -149 150
-42 23 -49 23 -415 26 l-373 3 0 138 c0 131 -1 139 -23 159 -29 27 -86 28
-172 3z m-5 -268 c-109 -119 -188 -251 -264 -440 -149 -372 -240 -910 -262
-1560 l-7 -193 -80 0 -80 0 6 238 c31 1132 282 1898 674 2058 l58 23 3 -35 c3
-30 -4 -43 -48 -91z m50 -1338 l0 -1165 -150 0 -150 0 0 130 c0 126 -1 132
-25 155 -18 19 -35 25 -66 25 l-42 0 7 188 c30 816 163 1431 382 1771 21 33
40 61 42 61 1 0 2 -524 2 -1165z m80 -2030 c0 -702 0 -715 -20 -735 -19 -19
-33 -20 -210 -20 -177 0 -191 1 -210 20 -20 20 -20 33 -20 735 l0 715 230 0
230 0 0 -715z"/>
<path d="M603 3632 c-101 -36 -171 -115 -193 -216 -8 -35 -10 -278 -8 -796 l3
-745 24 -49 c31 -63 84 -116 147 -147 39 -19 65 -24 124 -24 93 0 170 34 229
101 78 89 75 53 79 839 3 710 -1 823 -33 886 -69 133 -234 200 -372 151z m167
-150 c19 -9 45 -32 57 -51 l23 -34 0 -747 0 -747 -22 -33 c-65 -95 -188 -90
-255 10 l-23 33 0 735 c0 728 0 735 21 772 40 71 127 99 199 62z"/>
</g>
</svg>
